<?xml version="1.0" encoding="UTF-8"?>
<svg width="53px" height="40px" viewBox="0 0 53 40" version="1.1" xmlns="http://www.w3.org/2000/svg" xmlns:xlink="http://www.w3.org/1999/xlink">
    <title>YakShaver-Vertical</title>
    <g id="Page-1" stroke="none" stroke-width="1" fill="none" fill-rule="evenodd">
        <g id="YakShaver-Vertical" transform="translate(-0.000023, 0.000000)" fill="#CC4141" fill-rule="nonzero">
            <g id="Group-3">
                <path d="M17.925123,10.1365 C17.665323,10.1741 17.405123,10.21 17.145223,10.2458 L16.934523,10.2749 C16.371123,10.3544 15.806423,10.431 15.238823,10.4545 C14.674923,10.4807 14.109523,10.4759 13.544323,10.471 C13.370323,10.4696 13.196123,10.4681 13.022323,10.4675 C11.677123,10.4605 10.355523,10.2613 9.06512299,9.8184 C7.93062299,9.4298 6.89442299,8.8523 5.93462299,8.0729 C5.10252299,7.396 4.41932299,6.583 3.84782299,5.6968 C2.86272299,4.1647 2.19872299,2.471 1.86112299,0.6538 C1.83302299,0.5089 1.78132299,0.3683 1.72952299,0.2272 C1.70372299,0.1571 1.67792299,0.0868 1.65492299,0.0159 C1.62662299,0.0097 1.59562299,0.0049 1.56472299,0 C1.51742299,0.0979 1.46902299,0.1953 1.42062299,0.2925 C1.30462299,0.5256 1.18882299,0.7583 1.08902299,0.9981 C0.101922986,3.3559 -0.194777014,5.8494 0.120522986,8.4263 C0.212022986,9.1983 0.451122986,9.9614 0.687422986,10.7155 C0.720522986,10.8209 0.753522986,10.9262 0.785922986,11.0311 C1.03442299,11.8446 1.48392299,12.5477 1.93872299,13.2593 L2.00882299,13.369 C2.77492299,14.5657 3.71392299,15.5699 4.76942299,16.4439 C5.55702299,17.0939 6.42112299,17.6447 7.28002299,18.1922 C7.37592299,18.2535 7.47282299,18.3152 7.56862299,18.3765 C8.69682299,19.1017 9.91052299,19.6376 11.139423,20.1319 C11.307523,20.1995 11.475923,20.2659 11.644623,20.3309 L11.656723,27.8081 L15.882623,24.5646 L19.975923,37.8312 C20.085823,38.1874 20.379123,38.4585 20.745223,38.5421 L27.128523,40 L33.507023,38.5421 C33.873023,38.4585 34.166223,38.1874 34.276223,37.8313 L38.353023,24.6167 L42.509023,27.8081 L42.521023,19.8604 C43.523023,19.4388 44.506023,18.9714 45.431023,18.3765 C45.527023,18.3151 45.623023,18.2538 45.720023,18.1925 C46.578023,17.645 47.443023,17.0939 48.231023,16.4439 C49.286023,15.5699 50.225023,14.5657 50.991023,13.369 L51.061023,13.2593 C51.516023,12.5477 51.966023,11.8446 52.214023,11.0311 C52.246023,10.9268 52.279023,10.8222 52.312023,10.7176 L52.312023,10.7155 C52.549023,9.9614 52.788023,9.1983 52.880023,8.4263 C53.195023,5.8494 52.898023,3.3559 51.911023,0.9981 C51.811023,0.7583 51.695023,0.5256 51.579023,0.2925 C51.531023,0.1953 51.483023,0.098 51.435023,0 C51.404023,0.0049 51.373023,0.0097 51.345023,0.0159 C51.322023,0.0868 51.296023,0.157 51.271023,0.2271 C51.219023,0.3682 51.167023,0.509 51.139023,0.6538 C50.801023,2.471 50.137023,4.1647 49.152023,5.6968 C48.581023,6.583 47.897023,7.396 47.065023,8.0729 C46.106023,8.8523 45.069023,9.4298 43.935023,9.8184 C42.644023,10.2613 41.323023,10.4605 39.978023,10.4675 C39.804023,10.4681 39.630023,10.4696 39.456023,10.471 C38.891023,10.4759 38.325023,10.4807 37.761023,10.4545 C37.660023,10.4504 37.560023,10.4444 37.459023,10.4372 L27.128523,7.6882 L17.925123,10.1365 Z" id="Vector"></path>
            </g>
        </g>
    </g>
</svg>