<?xml version="1.0" encoding="utf-8"?>
<svg version="1.1" id="Layer_1" xmlns="http://www.w3.org/2000/svg" xmlns:xlink="http://www.w3.org/1999/xlink" x="0px" y="0px"
	 viewBox="0 0 194 194" style="enable-background:new 0 0 194 194;" xml:space="preserve">
<style type="text/css">
	.st0{fill-rule:evenodd;clip-rule:evenodd;fill:#CC4141;}
</style>
<g>
	
		<g transform="translate(97.000000, 97.000000) rotate(-45.000000) translate(-97.000000, -97.000000) translate(33.000000, 25.000000)">
		
			<rect x="31.6" y="11.6" transform="matrix(-1 2.535182e-06 -2.535182e-06 -1 127.154 70.1287)" class="st0" width="64" height="47"/>
		<path class="st0" d="M6.6-2.4h15.1c3.9,0,7,3.1,7,7v61.1c0,3.9-3.1,7-7,7H6.6c-3.9,0-7-3.1-7-7V4.5
			C-0.4,0.7,2.7-2.4,6.6-2.4z"/>
		<path class="st0" d="M105.6-2.4h15.1
			c3.9,0,7,3.1,7,7v61.1c0,3.9-3.1,7-7,7h-15.1c-3.9,0-7-3.1-7-7V4.5C98.6,0.7,101.7-2.4,105.6-2.4z"/>
		
			<rect x="45.6" y="54.6" transform="matrix(-1 2.535181e-06 -2.535181e-06 -1 128.1541 196.1287)" class="st0" width="37" height="87"/>
	</g>
</g>
</svg>
